<?xml version="1.0" encoding="UTF-8"?>
<svg version="1.1" xmlns="http://www.w3.org/2000/svg" width="512" height="512">
<path d="M0 0 C0.63099609 0.30663574 1.26199219 0.61327148 1.91210938 0.92919922 C15.99978166 7.85456105 28.26057441 16.66947491 39.52783203 27.57910156 C41.0138435 29.01336139 42.51960083 30.42457776 44.02734375 31.8359375 C56.27509856 43.47966649 65.25235245 57.05327742 73 72 C73.31420898 72.5971582 73.62841797 73.19431641 73.95214844 73.80957031 C79.78340711 85.03023135 83.39472635 96.91562617 87 109 C88.16402344 108.40251953 88.16402344 108.40251953 89.3515625 107.79296875 C106.19789373 99.5306273 123.87769413 97.24441788 142 103 C158.29601607 109.17736443 171.68658725 120.27629349 179.52734375 136.078125 C186.39362431 151.92032594 187.94473121 170.48663381 182.25390625 187.00390625 C174.53511716 205.44724342 161.94966524 218.13483689 143.51953125 225.80859375 C135.37706972 228.5649209 127.75839723 229.31948094 119.18359375 229.4140625 C117.53799217 229.44311172 117.53799217 229.44311172 115.85914612 229.4727478 C112.38534099 229.53210791 108.91150194 229.57875384 105.4375 229.625 C103.06964771 229.6632199 100.70180872 229.70227392 98.33398438 229.7421875 C92.55610848 229.83777323 86.77815117 229.92294583 81 230 C81.47911835 230.53902451 81.95823669 231.07804901 82.45187378 231.63340759 C83.08118805 232.34598221 83.71050232 233.05855682 84.35888672 233.79272461 C84.98238007 234.49674911 85.60587341 235.20077362 86.2482605 235.9261322 C99.80733499 251.97859201 104.02721818 273.80081156 102.73095703 294.27514648 C100.90759614 315.78662933 92.1173984 334.61831142 77 350 C76.38640625 350.62648438 75.7728125 351.25296875 75.140625 351.8984375 C63.05711183 363.31064439 47.08940847 369.36122848 30.7668457 371.11663818 C29.99316556 371.20032898 29.21948542 371.28401977 28.42236042 371.37024665 C19.11605379 372.29292032 9.8233892 372.28059669 0.48046875 372.25878906 C-1.50593696 372.26150698 -3.49234167 372.26507236 -5.47874451 372.26940918 C-10.81498239 372.27843551 -16.15114193 372.27503099 -21.48738098 372.26865101 C-27.09738355 372.26354565 -32.70737994 372.26829443 -38.31738281 372.27142334 C-47.72478425 372.27504747 -57.13215414 372.27030235 -66.53955078 372.26074219 C-77.39721664 372.24983528 -88.2548075 372.25340569 -99.11247158 372.264395 C-108.46748462 372.27348205 -117.82247516 372.27474697 -127.17749119 372.26951766 C-132.75104057 372.26640902 -138.32455472 372.26595865 -143.89810181 372.27259064 C-149.13167385 372.27838504 -154.36514935 372.27432896 -159.59871101 372.26280212 C-161.51346743 372.26016782 -163.42823204 372.26089951 -165.34298515 372.26532745 C-193.75054612 372.32494612 -193.75054612 372.32494612 -204.265625 362.98828125 C-212.04398491 354.73457712 -215.3779827 345.93853409 -215.2109375 334.6796875 C-214.50033328 325.65238199 -210.74192427 317.49182278 -204.1484375 311.24609375 C-194.10532367 303.26361881 -183.91469428 301.933099 -171.46875 301.68359375 C-170.59222778 301.66281265 -169.71570557 301.64203156 -168.81262207 301.62062073 C-166.04181958 301.55579117 -163.27093099 301.49655342 -160.5 301.4375 C-158.60936648 301.39425127 -156.71874132 301.35063507 -154.828125 301.30664062 C-150.21883584 301.20017915 -145.60946101 301.09872881 -141 301 C-141.01377686 299.91968506 -141.02755371 298.83937012 -141.04174805 297.72631836 C-141.0528938 296.28499595 -141.06369927 294.84367087 -141.07421875 293.40234375 C-141.0841687 292.69315796 -141.09411865 291.98397217 -141.10437012 291.2532959 C-141.15950656 281.15171987 -138.57644909 272.44491031 -133 264 C-132.67 263.67 -132.34 263.34 -132 263 C-132.68100517 262.99668985 -133.36201035 262.99337971 -134.06365204 262.98996925 C-150.70132412 262.90843774 -167.33890051 262.81624918 -183.97644806 262.71247292 C-192.02252844 262.66253767 -200.06859961 262.6160941 -208.11474609 262.578125 C-215.13492914 262.5449882 -222.15503629 262.50504076 -229.17513514 262.45720994 C-232.88570928 262.4321583 -236.59623449 262.4103166 -240.30686951 262.39665604 C-280.88098656 262.24103689 -280.88098656 262.24103689 -295 255 C-295.86109375 254.56816406 -296.7221875 254.13632812 -297.609375 253.69140625 C-311.18025596 246.25270908 -320.3071664 233.97477614 -325.2734375 219.5078125 C-329.17993011 206.02411221 -328.5646998 189.86836828 -323 177 C-322.4740625 175.68708984 -322.4740625 175.68708984 -321.9375 174.34765625 C-318.87854266 167.45438085 -314.29196387 162.300903 -309 157 C-308.0409375 156.02353516 -308.0409375 156.02353516 -307.0625 155.02734375 C-295.69492364 144.25182866 -280.44246185 139.98808791 -265.10546875 139.93847656 C-253.13472804 140.28827093 -243.31116102 144.11941598 -233 150 C-233.02320313 149.28199219 -233.04640625 148.56398438 -233.0703125 147.82421875 C-233.85114623 103.03782718 -216.18040802 63.42788521 -186 31 C-185.06414062 29.98292969 -185.06414062 29.98292969 -184.109375 28.9453125 C-137.76184266 -19.54433268 -58.84419527 -28.94853324 0 0 Z " fill="#A0CAFE" transform="translate(327,132)"/>
<path d="M0 0 C0.63099609 0.30663574 1.26199219 0.61327148 1.91210938 0.92919922 C15.99978166 7.85456105 28.26057441 16.66947491 39.52783203 27.57910156 C41.0138435 29.01336139 42.51960083 30.42457776 44.02734375 31.8359375 C56.27472248 43.47930896 65.2535035 57.05311442 73 72 C73.47928955 72.91168945 73.47928955 72.91168945 73.96826172 73.84179688 C77.95577466 81.52083383 80.94672964 89.35812288 83.5 97.625 C83.76772217 98.47868164 84.03544434 99.33236328 84.3112793 100.21191406 C86.6519722 108.18408074 86.6519722 108.18408074 85 112 C82.9609375 114.17578125 82.9609375 114.17578125 80.375 116.3125 C73.2429162 122.45769061 67.70761461 128.84302722 63 137 C59.75766155 136.41496937 58.11382598 135.45378947 55.75 133.1875 C47.11353931 125.49219208 37.15958536 123.50077618 25.7890625 123.69140625 C14.60017457 124.60266619 6.36388755 130.24425854 -1.25 138.1875 C-7.29694707 145.83461412 -9.28752266 153.87567059 -9.63671875 163.41796875 C-9.67454468 164.24631226 -9.71237061 165.07465576 -9.75134277 165.92810059 C-9.84256203 167.95170859 -9.92244989 169.97582207 -10 172 C-11.19150917 172.00879936 -11.19150917 172.00879936 -12.40708923 172.01777649 C-19.92444244 172.0758866 -27.4414711 172.14806668 -34.95853329 172.23571491 C-38.82235023 172.28027942 -42.68606511 172.31956529 -46.55004883 172.34643555 C-50.28500484 172.37260865 -54.01956512 172.41310746 -57.75427437 172.46318626 C-59.17303068 172.47976099 -60.59185528 172.49133339 -62.0106945 172.49761391 C-74.43217308 172.55811658 -83.98629873 173.89895666 -93 183 C-98.9634962 191.41988868 -99 197.18749285 -99 208 C-113.85 208 -128.7 208 -144 208 C-144.33 202.39 -144.66 196.78 -145 191 C-147.69768238 181.86938272 -152.73159956 173.31011491 -160.94921875 168.0625 C-170.96045081 162.87572834 -181.76910859 161.09969857 -192.859375 163.66015625 C-198.34487154 165.62778001 -202.5984392 168.72596145 -206.9921875 172.51171875 C-209.04360016 174.0323184 -210.505685 174.58055241 -213 175 C-213.43570313 174.28714844 -213.87140625 173.57429687 -214.3203125 172.83984375 C-219.95269508 163.261925 -219.95269508 163.261925 -227.9296875 155.734375 C-230.09312954 154.2920803 -231.50825554 153.14088975 -233 151 C-233.85260889 146.30088843 -233.42043687 141.72438274 -233 137 C-232.90071397 135.53387632 -232.80176622 134.0677297 -232.703125 132.6015625 C-229.65180091 93.33813985 -212.57905524 59.55834659 -186 31 C-185.37609375 30.32195312 -184.7521875 29.64390625 -184.109375 28.9453125 C-137.76184266 -19.54433268 -58.84419527 -28.94853324 0 0 Z " fill="#FCC102" transform="translate(327,132)"/>
<path d="M0 0 C0.83144531 0.67546875 1.66289062 1.3509375 2.51953125 2.046875 C3.29941406 2.63984375 4.07929688 3.2328125 4.8828125 3.84375 C18.78164886 15.07804261 26.6661103 33.71731342 28.77001953 51.11865234 C31.16116828 74.68854717 26.39168299 98.15452403 11.70703125 117.171875 C10.3305324 118.81328495 8.93460365 120.43860083 7.51953125 122.046875 C6.50246094 123.20703125 6.50246094 123.20703125 5.46484375 124.390625 C-9.79239997 140.70972817 -30.81193345 146.89633174 -52.48046875 148.046875 C-59.12917908 148.22854058 -65.78176486 148.19415601 -72.43237305 148.19213867 C-74.41804059 148.19513624 -76.40370756 148.19854014 -78.38937378 148.20231628 C-83.7465457 148.2110951 -89.10370162 148.21349167 -94.46088004 148.21413207 C-97.81306672 148.21484553 -101.16524939 148.21698534 -104.51743507 148.21962929 C-116.22590008 148.22885921 -127.93435374 148.23296673 -139.64282227 148.23217773 C-150.53730124 148.2315761 -161.43173085 148.24215079 -172.32619733 148.2579214 C-181.70233666 148.27100807 -191.07845986 148.27636123 -200.45460826 148.27572232 C-206.04500465 148.27546787 -211.63535701 148.27829078 -217.22574425 148.28890038 C-222.47976142 148.29860148 -227.7336926 148.29864673 -232.98771286 148.29138374 C-234.91053074 148.29034073 -236.83335403 148.29268388 -238.75616264 148.2987442 C-267.21885766 148.38261588 -267.21885766 148.38261588 -277.74609375 139.03515625 C-285.52445366 130.78145212 -288.85845145 121.98540909 -288.69140625 110.7265625 C-287.98080203 101.69925699 -284.22239302 93.53869778 -277.62890625 87.29296875 C-267.58579242 79.31049381 -257.39516303 77.979974 -244.94921875 77.73046875 C-244.07269653 77.70968765 -243.19617432 77.68890656 -242.29309082 77.66749573 C-239.52228833 77.60266617 -236.75139974 77.54342842 -233.98046875 77.484375 C-232.08983523 77.44112627 -230.19921007 77.39751007 -228.30859375 77.35351562 C-223.69930459 77.24705415 -219.08992976 77.14560381 -214.48046875 77.046875 C-214.50113403 75.42640259 -214.50113403 75.42640259 -214.5222168 73.77319336 C-214.53336255 72.33187095 -214.54416802 70.89054587 -214.5546875 69.44921875 C-214.56463745 68.74003296 -214.5745874 68.03084717 -214.58483887 67.3001709 C-214.65662875 54.14750902 -210.39329765 43.91376959 -201.41796875 34.421875 C-190.93365851 24.09114178 -179.18052298 18.83779115 -164.60546875 18.609375 C-152.99888693 18.69532315 -144.39274025 21.93075775 -134.85546875 28.55859375 C-132.65272633 29.93893069 -131.01775096 30.60637462 -128.48046875 31.046875 C-128.27421875 30.263125 -128.06796875 29.479375 -127.85546875 28.671875 C-120.89678489 10.32625392 -106.04205721 -1.16712679 -88.85546875 -9.265625 C-60.37754449 -20.67586474 -24.75923414 -19.2853771 0 0 Z " fill="#E2EEFE" transform="translate(400.48046875,355.953125)"/>
<path d="M0 0 C12.5027835 10.6558033 22.38113987 25.24840401 23.82275391 41.98608398 C24.696098 62.93333494 21.07372808 79.47099367 7.13671875 95.78125 C-5.36818408 108.78711966 -21.40464021 115.43606011 -39.29359436 115.82411194 C-40.38135666 115.83574875 -41.46911896 115.84738556 -42.58984375 115.859375 C-43.73452621 115.87314682 -44.87920868 115.88691864 -46.05857849 115.90110779 C-48.46633142 115.92426942 -50.8741469 115.94159054 -53.28198242 115.95336914 C-56.95414313 115.9804187 -60.62347838 116.05546081 -64.29492188 116.13085938 C-66.64320995 116.1475085 -68.99152057 116.16127773 -71.33984375 116.171875 C-72.42963028 116.20172989 -73.51941681 116.23158478 -74.64222717 116.26234436 C-80.26893699 116.23001342 -83.61843196 115.80739231 -87.91967773 112.01416016 C-88.51022446 111.3978775 -89.10077118 110.78159485 -89.70921326 110.14663696 C-92.36963115 107.4240974 -95.50296512 105.87551509 -98.8984375 104.23046875 C-99.57696777 103.89587646 -100.25549805 103.56128418 -100.95458984 103.21655273 C-111.44232262 98.26930422 -123.49807377 95.3376449 -135.0932312 95.25975037 C-136.20373337 95.24996155 -137.31423553 95.24017273 -138.45838928 95.23008728 C-139.66176437 95.22433182 -140.86513947 95.21857635 -142.10498047 95.21264648 C-143.38357437 95.20274689 -144.66216827 95.19284729 -145.97950745 95.18264771 C-149.47282268 95.15570816 -152.96615127 95.13463963 -156.45951223 95.11464572 C-160.1150513 95.09271828 -163.7705497 95.06536278 -167.42605591 95.03858948 C-174.34257221 94.9887537 -181.2591112 94.94378121 -188.1756717 94.90056711 C-196.05235044 94.85111664 -203.92898836 94.79622757 -211.80562758 94.74088752 C-228.00319323 94.62720748 -244.20079634 94.52033822 -260.3984375 94.41796875 C-262.62149969 86.21251968 -261.30635256 79.84543463 -257.3984375 72.41796875 C-252.28887702 64.61757465 -245.30688539 60.65234674 -236.3984375 58.41796875 C-233.08900452 58.17745972 -233.08900452 58.17745972 -229.63696289 58.19091797 C-228.33614273 58.19106903 -227.03532257 58.19122009 -225.69508362 58.19137573 C-224.29541873 58.20158594 -222.89575545 58.21201788 -221.49609375 58.22265625 C-220.04878435 58.22639142 -218.60147239 58.22923601 -217.15415955 58.23123169 C-213.36478563 58.23882851 -209.57556765 58.2584425 -205.78625488 58.28063965 C-201.91156116 58.30118372 -198.03684199 58.31025163 -194.16210938 58.3203125 C-186.57414805 58.34169258 -178.98631471 58.37578013 -171.3984375 58.41796875 C-171.42091553 57.19400391 -171.44339355 55.97003906 -171.46655273 54.70898438 C-171.48473564 53.08073493 -171.50236585 51.45247924 -171.51953125 49.82421875 C-171.54388245 48.61813965 -171.54388245 48.61813965 -171.56872559 47.38769531 C-171.65612764 36.31300978 -167.43285161 28.49361443 -159.7890625 20.609375 C-150.18404056 11.80477155 -141.10620181 8.77156517 -128.1171875 9.0703125 C-118.81128114 9.94029744 -109.2776387 14.16062946 -102.8359375 21.1015625 C-101.35455867 22.75564953 -101.35455867 22.75564953 -98.3984375 22.41796875 C-96.88838849 20.35714923 -96.88838849 20.35714923 -95.4609375 17.66796875 C-86.40643629 2.83236951 -72.43606689 -7.68941275 -55.6796875 -12.3359375 C-36.2410581 -16.42376692 -15.65465451 -12.44142803 0 0 Z " fill="#A0C9FC" transform="translate(488.3984375,245.58203125)"/>
<path d="M0 0 C14.10431916 4.86955532 25.60222133 14.4040957 33.125 27.3125 C33.82653251 28.96479367 34.5038864 30.62832658 35.125 32.3125 C38.54931189 30.31751901 41.74821615 28.16195628 44.9375 25.8125 C54.23002134 19.36768681 61.71875939 18.29679587 73.125 19.3125 C83.10365749 21.19907139 91.0469612 25.97851604 97.23046875 34.06640625 C104.38071067 44.90233988 104.125 51.11087485 104.125 65.3125 C155.605 65.3125 207.085 65.3125 260.125 65.3125 C260.125 65.6425 260.125 65.9725 260.125 66.3125 C258.866875 66.52003906 257.60875 66.72757812 256.3125 66.94140625 C244.27048093 69.05464283 231.20007686 71.42000391 221.54083061 79.46473217 C212.06201481 87.11017663 204.33306432 87.58517149 192.44580078 87.39770508 C190.59631149 87.40172308 188.74682725 87.4096518 186.89736938 87.42115784 C181.9089886 87.44070502 176.92245721 87.40452925 171.93432474 87.35677171 C166.69102083 87.31511428 161.44775348 87.32184177 156.20431519 87.32218933 C147.39973156 87.31570282 138.59585059 87.27483444 129.79150391 87.21118164 C119.64567036 87.13805307 109.50052801 87.1098711 99.35444653 87.108033 C88.50803086 87.10577488 77.66186869 87.07296342 66.81554556 87.03001952 C63.71063473 87.01958275 60.60575299 87.01448731 57.50082779 87.01050758 C52.60033771 87.00252995 47.70036878 86.9737311 42.80007553 86.92957115 C41.01323843 86.91641849 39.2263385 86.90974985 37.43945312 86.91044617 C16.93729198 86.90810134 -1.16746149 82.25127448 -16.14453125 67.33203125 C-27.333656 55.43310493 -32.22878287 40.2746891 -32.09375 24.22265625 C-31.58701184 15.16471159 -30.37266484 5.76094914 -24.875 -1.6875 C-18.48889947 -4.88055026 -6.51208963 -1.86281467 0 0 Z " fill="#BFDAFE" transform="translate(78.875,274.6875)"/>
<path d="M0 0 C9.4063423 4.18059658 14.45973252 14.8180814 18 24 C20.55242302 31.48063584 21.52178431 38.42723463 21.4375 46.3125 C21.42614014 47.81635254 21.42614014 47.81635254 21.41455078 49.35058594 C21.0284915 66.82751783 14.09962966 81.41563942 2 94 C-11.66340249 106.3067526 -27.09474823 111.24780938 -45.19140625 111.44140625 C-46.33608871 111.45517807 -47.48077118 111.46894989 -48.66014099 111.48313904 C-51.06789392 111.50630067 -53.4757094 111.52362179 -55.88354492 111.53540039 C-59.55570563 111.56244995 -63.22504088 111.63749206 -66.89648438 111.71289062 C-69.24477245 111.72953975 -71.59308307 111.74330898 -73.94140625 111.75390625 C-75.03119278 111.78376114 -76.12097931 111.81361603 -77.24378967 111.84437561 C-82.87049949 111.81204467 -86.21999446 111.38942356 -90.52124023 107.59619141 C-91.11178696 106.97990875 -91.70233368 106.3636261 -92.31077576 105.72866821 C-94.97119365 103.00612865 -98.10452762 101.45754634 -101.5 99.8125 C-102.17853027 99.47790771 -102.85706055 99.14331543 -103.55615234 98.79858398 C-114.04388512 93.85133547 -126.09963627 90.91967615 -137.6947937 90.84178162 C-138.80529587 90.8319928 -139.91579803 90.82220398 -141.05995178 90.81211853 C-142.26332687 90.80636307 -143.46670197 90.8006076 -144.70654297 90.79467773 C-145.98513687 90.78477814 -147.26373077 90.77487854 -148.58106995 90.76467896 C-152.07438518 90.73773941 -155.56771377 90.71667088 -159.06107473 90.69667697 C-162.7166138 90.67474953 -166.3721122 90.64739403 -170.02761841 90.62062073 C-176.94413471 90.57078495 -183.8606737 90.52581246 -190.7772342 90.48259836 C-198.65391294 90.43314789 -206.53055086 90.37825882 -214.40719008 90.32291877 C-230.60475573 90.20923873 -246.80235884 90.10236947 -263 90 C-264.57318319 84.26549354 -264.67806233 79.25323049 -262.484375 73.734375 C-262.20819336 73.03022461 -261.93201172 72.32607422 -261.64746094 71.60058594 C-261.43379883 71.07239258 -261.22013672 70.54419922 -261 70 C-259.94000699 69.99853344 -258.88001398 69.99706688 -257.78789997 69.99555588 C-231.9632082 69.95891622 -206.13864567 69.89940804 -180.31406116 69.81609726 C-167.82533879 69.7763345 -155.33667918 69.74392792 -142.84790039 69.72900391 C-131.95919659 69.71597312 -121.07063104 69.68897189 -110.18200511 69.64538693 C-104.41971025 69.62280441 -98.65758572 69.60708741 -92.89524269 69.60811615 C-87.46397069 69.60886464 -82.03307475 69.59083756 -76.6019001 69.55883217 C-74.61586982 69.55036117 -72.62979722 69.54856406 -70.64375687 69.55419731 C-49.5829277 69.60594623 -33.51957511 64.6639058 -17.83984375 49.9765625 C-6.8566382 38.59127428 -1.34546611 22.74200143 -0.4375 7.1875 C-0.39431641 6.49462891 -0.35113281 5.80175781 -0.30664062 5.08789062 C-0.20138547 3.39211314 -0.10027137 1.69607948 0 0 Z " fill="#81B8FC" transform="translate(491,250)"/>
<path d="M0 0 C1.35611813 0.00502686 2.71223808 0.00958766 4.06835938 0.01367188 C7.35811994 0.02537921 10.64778594 0.04177789 13.9375 0.0625 C14.2675 0.7225 14.5975 1.3825 14.9375 2.0625 C13.70257813 2.28164062 12.46765625 2.50078125 11.1953125 2.7265625 C-19.44429765 8.36837387 -46.41845365 20.64264179 -70.0625 41.0625 C-70.86429687 41.74183594 -71.66609375 42.42117187 -72.4921875 43.12109375 C-77.48097543 47.42959242 -81.9092788 51.94684132 -86.0625 57.0625 C-86.83464844 58.00867188 -87.60679687 58.95484375 -88.40234375 59.9296875 C-98.74983942 72.85447794 -106.45436705 86.91653142 -113.0625 102.0625 C-113.46210938 102.96871094 -113.86171875 103.87492187 -114.2734375 104.80859375 C-116.74188417 110.97971041 -118.18912935 117.4151516 -119.6875 123.875 C-119.8939917 124.76405029 -120.1004834 125.65310059 -120.31323242 126.5690918 C-122.57434562 136.73169767 -124.23631483 146.74683721 -124.08984375 157.18359375 C-124.08460693 157.86605667 -124.07937012 158.54851959 -124.07397461 159.25166321 C-124.05061825 162.04692176 -124.02630094 164.83823194 -123.9152832 167.6315918 C-123.74648482 172.26476141 -123.77261357 176.56269732 -125.0625 181.0625 C-128.35010426 184.36074161 -131.90695398 186.06876789 -136.0625 188.0625 C-136.88609009 188.88899048 -136.88609009 188.88899048 -137.72631836 189.73217773 C-139.0625 191.0625 -139.0625 191.0625 -142.0625 191.0625 C-143.67578125 188.90234375 -143.67578125 188.90234375 -145.375 186 C-150.16765023 177.99857978 -150.16765023 177.99857978 -156.9921875 171.796875 C-159.15562954 170.3545803 -160.57075554 169.20338975 -162.0625 167.0625 C-162.91510889 162.36338843 -162.48293687 157.78688274 -162.0625 153.0625 C-161.96321397 151.59637632 -161.86426622 150.1302297 -161.765625 148.6640625 C-158.71430091 109.40063985 -141.64155524 75.62084659 -115.0625 47.0625 C-114.43859375 46.38445312 -113.8146875 45.70640625 -113.171875 45.0078125 C-84.2322031 14.73059273 -41.13640641 -0.26356495 0 0 Z " fill="#F0A709" transform="translate(256.0625,115.9375)"/>
<path d="M0 0 C3.25390625 1.3894043 3.25390625 1.3894043 6.5625 3.32421875 C7.15748291 3.6674971 7.75246582 4.01077545 8.36547852 4.36445618 C10.25218276 5.45821189 12.1256651 6.57271056 14 7.6875 C15.25705389 8.41732383 16.51486132 9.14585137 17.7734375 9.87304688 C34.21517434 19.43034869 34.21517434 19.43034869 36 23 C36.57089084 29.16562108 36.57089084 29.16562108 34.375 32.375 C31.47244342 34.36095976 29.49507392 34.7181392 26 35 C23.640625 34.13671875 23.640625 34.13671875 21.25 32.6875 C20.31027344 32.13449219 19.37054688 31.58148438 18.40234375 31.01171875 C17.27957031 30.34785156 16.15679687 29.68398437 15 29 C13.52517668 28.1884588 12.04708125 27.38284614 10.56640625 26.58203125 C9.78297852 26.15639893 8.99955078 25.7307666 8.19238281 25.29223633 C6.64505568 24.45206373 5.09630035 23.61451426 3.54589844 22.7800293 C-9.77215681 15.45568639 -9.77215681 15.45568639 -12 11 C-12.53507099 6.9869676 -12.33051628 5.46071967 -9.9375 2.125 C-6.22112374 -0.5634424 -4.52084975 -0.41316728 0 0 Z " fill="#F0A709" transform="translate(21,171)"/>
<path d="M0 0 C5.5913893 1.93682921 8.94822865 7.36904952 12.4921875 11.86328125 C13.65621094 13.26320313 13.65621094 13.26320313 14.84375 14.69140625 C16.34890378 16.50172866 17.83755091 18.32591449 19.30859375 20.1640625 C20.78012927 21.98308047 22.28931671 23.77219485 23.83203125 25.53125 C29.27786247 31.85760226 29.27786247 31.85760226 30.3046875 36.67578125 C29.25487718 40.79426788 27.93689601 42.39207732 24.4921875 44.86328125 C21.6796875 45.61328125 21.6796875 45.61328125 18.4921875 44.86328125 C12.57010813 41.03651386 8.25770425 35.37478766 3.94140625 29.8984375 C2.17561899 27.7102131 0.39888108 25.6236594 -1.48828125 23.546875 C-1.98996826 22.98564941 -2.49165527 22.42442383 -3.00854492 21.84619141 C-3.98131604 20.7623777 -4.96657668 19.68959721 -5.96606445 18.63037109 C-9.72425948 14.38775035 -10.36072382 11.35647788 -10.5078125 5.86328125 C-8.26476275 0.96935452 -5.17177621 -0.29674126 0 0 Z " fill="#F0A709" transform="translate(73.5078125,90.13671875)"/>
<path d="M0 0 C3.63525215 2.60789828 4.83397068 4.0702358 5.625 8.5 C4.82118057 13.0013888 3.44497748 14.0266296 0 17 C-2.77350541 18.78215502 -5.65004491 20.33305818 -8.5625 21.875 C-10.17389351 22.74476775 -11.78456931 23.61586647 -13.39453125 24.48828125 C-14.17908691 24.91189941 -14.96364258 25.33551758 -15.77197266 25.77197266 C-19.73505218 27.956313 -23.57858961 30.33464998 -27.421875 32.72265625 C-30.33907462 34.16799606 -32.76164313 34.72865416 -36 35 C-39.52906067 33.39588152 -40.82772908 32.25840638 -43 29 C-42.86399805 25.25994647 -42.73562045 22.861035 -40.2644043 19.96850586 C-37.91294607 17.92432174 -35.61628494 16.45349164 -32.89453125 14.94140625 C-31.91033203 14.39033203 -30.92613281 13.83925781 -29.91210938 13.27148438 C-28.37780273 12.42553711 -28.37780273 12.42553711 -26.8125 11.5625 C-25.80896484 11.00240234 -24.80542969 10.44230469 -23.77148438 9.86523438 C-21.79060548 8.76073651 -19.80740954 7.66038264 -17.82177734 6.56445312 C-15.99819469 5.55342028 -14.18033335 4.53196684 -12.36962891 3.49804688 C-11.5760498 3.04623047 -10.7824707 2.59441406 -9.96484375 2.12890625 C-8.92831665 1.53251343 -8.92831665 1.53251343 -7.87084961 0.92407227 C-5.00580446 -0.49106487 -3.10850739 -0.70647895 0 0 Z " fill="#F0A709" transform="translate(497,171)"/>
<path d="M0 0 C3.11654221 0.98640074 3.87457115 1.76154735 5.421875 4.703125 C6.07929688 6.45882812 6.07929688 6.45882812 6.75 8.25 C6.99314941 8.89388672 7.23629883 9.53777344 7.48681641 10.20117188 C8.02987858 11.6479893 8.56608148 13.09739341 9.09667969 14.54882812 C10.09432808 17.25596051 11.12855432 19.94775824 12.1640625 22.640625 C12.90238222 24.59324364 13.63936871 26.54636693 14.375 28.5 C14.73303711 29.43102539 15.09107422 30.36205078 15.45996094 31.32128906 C17.34619684 36.42792773 18.59798941 40.54690608 18 46 C15.94502229 49.00342896 14.52366286 49.83287356 11.0625 50.9375 C7.30164962 51.01425205 5.99101977 50.23252867 3 48 C1.5871582 45.53466797 1.5871582 45.53466797 0.48828125 42.6171875 C0.07658691 41.54694336 -0.33510742 40.47669922 -0.75927734 39.37402344 C-1.16871582 38.2605957 -1.5781543 37.14716797 -2 36 C-2.40814941 34.93555664 -2.81629883 33.87111328 -3.23681641 32.77441406 C-4.45792072 29.56797688 -5.6394911 26.34931065 -6.8125 23.125 C-7.21919922 22.03703125 -7.62589844 20.9490625 -8.04492188 19.828125 C-8.42841797 18.77367188 -8.81191406 17.71921875 -9.20703125 16.6328125 C-9.5522583 15.69324707 -9.89748535 14.75368164 -10.25317383 13.78564453 C-11.08249012 10.69231376 -11.27615341 8.18884225 -11 5 C-7.72846952 0.57381171 -5.48700963 -0.8172142 0 0 Z " fill="#F0A609" transform="translate(158,33)"/>
<path d="M0 0 C3.14178544 2.90613323 4.26239771 5.16591121 4.51757812 9.34375 C4.54386369 11.06230503 4.54711404 12.78131717 4.53125 14.5 C4.5350769 15.41330078 4.53890381 16.32660156 4.54284668 17.26757812 C4.54556253 19.19402166 4.53822424 21.12050228 4.52148438 23.046875 C4.50006968 25.99042208 4.52129671 28.93152855 4.546875 31.875 C4.54423167 33.75000537 4.53910657 35.62500923 4.53125 37.5 C4.53934692 38.37720703 4.54744385 39.25441406 4.55578613 40.15820312 C4.49242317 44.3008857 4.33264831 46.46714985 2.09179688 50.05664062 C0 52 0 52 -2 52.59375 C-6.1643855 52.39854443 -9.01045194 52.22871191 -12 49 C-13.3169168 45.04924961 -13.18237282 41.25300638 -13.203125 37.1328125 C-13.20882507 36.26107391 -13.21452515 35.38933533 -13.22039795 34.49118042 C-13.22984183 32.64696464 -13.2363795 30.80273203 -13.24023438 28.95849609 C-13.24993933 26.14260314 -13.28096786 23.32744041 -13.3125 20.51171875 C-13.31903043 18.71875433 -13.32428075 16.92578469 -13.328125 15.1328125 C-13.3404718 14.29307892 -13.3528186 13.45334534 -13.36553955 12.58816528 C-13.34776735 7.90531086 -13.05864292 4.79677555 -10 1 C-6.86599115 -0.56700442 -3.36844905 -0.85164561 0 0 Z " fill="#F0A709" transform="translate(260,8)"/>
<path d="M0 0 C2.5 1.5625 2.5 1.5625 4 4 C4.64426065 7.35015537 4.71291464 9.66702934 3.0703125 12.73828125 C1.48368034 14.93046237 -0.22713889 16.95413801 -2 19 C-2.94192034 20.10112295 -3.88328237 21.20272361 -4.82421875 22.3046875 C-6.38634857 24.13073086 -7.95154321 25.95368594 -9.52636719 27.76879883 C-13.03956989 31.82565922 -16.35729681 35.97417163 -19.5 40.328125 C-21.21845604 42.24348746 -22.59234834 43.10810601 -25 44 C-28.3568842 43.82332188 -30.96417908 43.62149255 -33.875 41.875 C-35.75318851 38.74468582 -36.06013462 36.66821153 -36 33 C-34.49061933 29.94007373 -32.24481166 27.54849733 -30 25 C-29.06743857 23.91150095 -28.13657955 22.82154205 -27.20703125 21.73046875 C-25.65938217 19.91696126 -24.1088697 18.1063641 -22.54858398 16.30371094 C-18.73895997 11.90126733 -15.08533203 7.39938509 -11.5234375 2.79296875 C-8.44648364 -0.82836925 -4.451508 -0.61582126 0 0 Z " fill="#F0A709" transform="translate(444,91)"/>
<path d="M0 0 C2.875 2.0625 2.875 2.0625 5 5 C5.48448624 10.38272427 4.37628329 14.7385918 2.515625 19.7265625 C2.25875916 20.43726898 2.00189331 21.14797546 1.73724365 21.88021851 C1.19455514 23.37299132 0.64630481 24.86375281 0.09277344 26.35253906 C-0.74822691 28.62021904 -1.56661552 30.8951667 -2.3828125 33.171875 C-2.91533496 34.62809185 -3.44914622 36.08383818 -3.984375 37.5390625 C-4.22621521 38.21313141 -4.46805542 38.88720032 -4.71722412 39.58169556 C-6.25104732 43.65817866 -7.99042416 46.83795666 -11 50 C-14.63293114 51.23674251 -16.24191953 51.34458203 -19.75 49.75 C-22 48 -22 48 -24 45 C-23.67022082 39.35197191 -22.36846467 34.43546871 -20.453125 29.140625 C-20.20004578 28.42896179 -19.94696655 27.71729858 -19.68621826 26.98406982 C-19.15260192 25.49350559 -18.61456071 24.00451856 -18.07226562 22.51708984 C-17.2491926 20.2477739 -16.452323 17.97031227 -15.65625 15.69140625 C-15.13177947 14.23641187 -14.60578961 12.78196407 -14.078125 11.328125 C-13.84458313 10.65203186 -13.61104126 9.97593872 -13.37042236 9.27935791 C-10.96555924 2.83070587 -7.21040279 -1.35195052 0 0 Z " fill="#F0A709" transform="translate(359,33)"/>
</svg>
